<svg width="631" height="225" viewBox="0 0 631 225" fill="none" xmlns="http://www.w3.org/2000/svg">
<path d="M150 150C150 164.834 145.601 179.334 137.36 191.668C129.119 204.001 117.406 213.614 103.701 219.291C89.9968 224.968 74.9168 226.453 60.3682 223.559C45.8196 220.665 32.4559 213.522 21.967 203.033C11.4781 192.544 4.335 179.18 1.4411 164.632C-1.45279 150.083 0.0324627 135.003 5.70904 121.299C11.3856 107.594 20.9985 95.8809 33.3322 87.6398C45.6659 79.3987 60.1664 75 75 75V150H150Z" fill="#1C62DB"/>
<path d="M75 150C75 135.166 79.3987 120.666 87.6398 108.332C95.8809 95.9986 107.594 86.3856 121.299 80.709C135.003 75.0325 150.083 73.5472 164.632 76.4411C179.18 79.335 192.544 86.4781 203.033 96.967C213.522 107.456 220.665 120.82 223.559 135.368C226.453 149.917 224.968 164.997 219.291 178.701C213.614 192.406 204.001 204.119 191.668 212.36C179.334 220.601 164.834 225 150 225V150H75Z" fill="#6496ED"/>
<path d="M75 75C75 55.1088 82.9018 36.0322 96.967 21.967C111.032 7.90175 130.109 -8.29566e-06 150 -6.55671e-06C169.891 -4.81776e-06 188.968 7.90176 203.033 21.967C217.098 36.0322 225 55.1087 225 75L150 75L75 75Z" fill="#B4D1FF"/>
<path d="M323.048 161.164C316.904 161.164 311.613 159.799 307.176 157.068C302.824 154.252 299.411 150.369 296.936 145.42C294.547 140.471 293.352 134.711 293.352 128.14C293.352 121.569 294.547 115.767 296.936 110.732C299.411 105.612 302.952 101.601 307.56 98.7C312.168 95.7987 317.629 94.348 323.944 94.348C328.381 94.348 332.435 95.244 336.104 97.036C339.773 98.7427 342.589 101.175 344.552 104.332V64.268H360.04V159.5H345.704L344.68 149.644C342.803 153.228 339.901 156.044 335.976 158.092C332.136 160.14 327.827 161.164 323.048 161.164ZM326.504 146.828C330.173 146.828 333.331 146.06 335.976 144.524C338.621 142.903 340.669 140.641 342.12 137.74C343.656 134.753 344.424 131.383 344.424 127.628C344.424 123.788 343.656 120.46 342.12 117.644C340.669 114.743 338.621 112.481 335.976 110.86C333.331 109.153 330.173 108.3 326.504 108.3C322.92 108.3 319.805 109.153 317.16 110.86C314.515 112.481 312.467 114.743 311.016 117.644C309.651 120.545 308.968 123.873 308.968 127.628C308.968 131.383 309.651 134.711 311.016 137.612C312.467 140.513 314.515 142.775 317.16 144.396C319.805 146.017 322.92 146.828 326.504 146.828ZM382.842 127.756C382.842 121.185 384.293 115.425 387.194 110.476C390.095 105.441 394.106 101.516 399.226 98.7C404.346 95.884 410.149 94.476 416.634 94.476C423.205 94.476 429.007 95.884 434.042 98.7C439.162 101.516 443.173 105.441 446.074 110.476C448.975 115.425 450.426 121.185 450.426 127.756C450.426 134.327 448.975 140.129 446.074 145.164C443.173 150.113 439.162 153.996 434.042 156.812C429.007 159.628 423.205 161.036 416.634 161.036C410.149 161.036 404.346 159.628 399.226 156.812C394.106 153.996 390.095 150.113 387.194 145.164C384.293 140.129 382.842 134.327 382.842 127.756ZM398.458 127.756C398.458 131.596 399.226 134.967 400.762 137.868C402.383 140.769 404.517 143.031 407.162 144.652C409.893 146.273 413.05 147.084 416.634 147.084C420.218 147.084 423.375 146.273 426.106 144.652C428.837 143.031 430.97 140.769 432.506 137.868C434.042 134.967 434.81 131.596 434.81 127.756C434.81 123.831 434.042 120.46 432.506 117.644C430.97 114.743 428.837 112.481 426.106 110.86C423.375 109.239 420.218 108.428 416.634 108.428C413.05 108.428 409.893 109.239 407.162 110.86C404.517 112.481 402.383 114.743 400.762 117.644C399.226 120.46 398.458 123.831 398.458 127.756ZM473.044 188.812V96.268H487.508L488.532 105.868C490.409 102.199 493.311 99.3827 497.236 97.42C501.161 95.372 505.471 94.348 510.164 94.348C516.223 94.348 521.428 95.7133 525.78 98.444C530.217 101.175 533.673 104.972 536.148 109.836C538.623 114.7 539.86 120.46 539.86 127.116C539.86 133.687 538.708 139.532 536.404 144.652C534.1 149.772 530.729 153.825 526.292 156.812C521.94 159.713 516.607 161.164 510.292 161.164C505.599 161.164 501.289 160.268 497.364 158.476C493.524 156.684 490.623 154.209 488.66 151.052V188.812H473.044ZM488.788 127.884C488.788 131.639 489.513 134.967 490.964 137.868C492.415 140.769 494.463 143.073 497.108 144.78C499.839 146.401 502.996 147.212 506.58 147.212C510.249 147.212 513.407 146.401 516.052 144.78C518.697 143.073 520.703 140.769 522.068 137.868C523.433 134.967 524.116 131.639 524.116 127.884C524.116 124.129 523.433 120.801 522.068 117.9C520.703 114.999 518.697 112.737 516.052 111.116C513.407 109.409 510.249 108.556 506.58 108.556C502.996 108.556 499.839 109.367 497.108 110.988C494.463 112.609 492.415 114.871 490.964 117.772C489.513 120.673 488.788 124.044 488.788 127.884ZM558.822 127.756C558.822 121.185 560.273 115.425 563.174 110.476C566.075 105.441 570.086 101.516 575.206 98.7C580.326 95.884 586.129 94.476 592.614 94.476C599.185 94.476 604.987 95.884 610.022 98.7C615.142 101.516 619.153 105.441 622.054 110.476C624.955 115.425 626.406 121.185 626.406 127.756C626.406 134.327 624.955 140.129 622.054 145.164C619.153 150.113 615.142 153.996 610.022 156.812C604.987 159.628 599.185 161.036 592.614 161.036C586.129 161.036 580.326 159.628 575.206 156.812C570.086 153.996 566.075 150.113 563.174 145.164C560.273 140.129 558.822 134.327 558.822 127.756ZM574.438 127.756C574.438 131.596 575.206 134.967 576.742 137.868C578.363 140.769 580.497 143.031 583.142 144.652C585.873 146.273 589.03 147.084 592.614 147.084C596.198 147.084 599.355 146.273 602.086 144.652C604.817 143.031 606.95 140.769 608.486 137.868C610.022 134.967 610.79 131.596 610.79 127.756C610.79 123.831 610.022 120.46 608.486 117.644C606.95 114.743 604.817 112.481 602.086 110.86C599.355 109.239 596.198 108.428 592.614 108.428C589.03 108.428 585.873 109.239 583.142 110.86C580.497 112.481 578.363 114.743 576.742 117.644C575.206 120.46 574.438 123.831 574.438 127.756Z" fill="#1C62DB"/>
</svg>
